<svg xmlns="http://www.w3.org/2000/svg" xmlns:xlink="http://www.w3.org/1999/xlink" width="500" zoomAndPan="magnify" viewBox="0 0 375 374.999991" height="500" preserveAspectRatio="xMidYMid meet" version="1.0"><rect x="-37.5" width="450" fill="#ffffff" y="-37.499999" height="449.999989" fill-opacity="1"/><rect x="-37.5" width="450" fill="#ffffff" y="-37.499999" height="449.999989" fill-opacity="1"/><path fill="#4fd3c4" d="M 363.332031 329.082031 C 375.085938 308.734375 368.109375 282.714844 347.765625 270.96875 C 327.417969 259.222656 301.398438 266.199219 289.652344 286.546875 C 287.320312 290.578125 285.734375 294.832031 284.832031 299.160156 L 229.132812 299.160156 C 227.269531 290.289062 222.59375 282.046875 215.492188 275.855469 L 243.316406 227.660156 C 262.175781 234.121094 283.5625 226.578125 293.90625 208.667969 C 305.648438 188.320312 298.683594 162.300781 278.328125 150.554688 C 266.820312 143.910156 253.5 143.257812 241.96875 147.625 L 214.472656 100 C 218.386719 96.816406 221.800781 92.878906 224.472656 88.253906 C 236.226562 67.90625 229.253906 41.890625 208.90625 30.144531 C 188.558594 18.398438 162.539062 25.367188 150.789062 45.710938 C 139.046875 66.058594 146.015625 92.078125 166.367188 103.824219 C 176.949219 109.933594 189.074219 110.980469 199.925781 107.707031 L 227.996094 156.324219 C 225.007812 159.121094 222.375 162.398438 220.222656 166.125 C 217.746094 170.417969 216.105469 174.960938 215.238281 179.570312 L 159.863281 179.570312 C 157.636719 167.824219 150.503906 157.082031 139.335938 150.632812 C 118.988281 138.886719 92.972656 145.863281 81.226562 166.207031 C 70.890625 184.117188 75.042969 206.414062 90.066406 219.515625 L 62.246094 267.707031 C 43.390625 261.246094 22 268.789062 11.660156 286.699219 C -0.0820312 307.042969 6.878906 333.066406 27.230469 344.808594 C 47.578125 356.558594 73.589844 349.585938 85.34375 329.242188 C 95.679688 311.332031 91.519531 289.03125 76.496094 275.933594 L 104.320312 227.738281 C 113.484375 230.882812 123.257812 230.710938 132.0625 227.644531 L 159.757812 275.621094 C 156.214844 278.660156 153.121094 282.347656 150.652344 286.621094 C 138.90625 306.96875 145.875 332.988281 166.226562 344.734375 C 186.570312 356.480469 212.585938 349.503906 224.332031 329.160156 C 226.832031 324.835938 228.480469 320.257812 229.335938 315.609375 L 284.675781 315.609375 C 286.882812 327.394531 294.019531 338.179688 305.222656 344.648438 C 325.570312 356.394531 351.585938 349.429688 363.332031 329.082031 Z M 215.410156 196.023438 C 217.257812 204.929688 221.9375 213.214844 229.066406 219.433594 L 201.246094 267.628906 C 192.28125 264.554688 182.738281 264.652344 174.085938 267.527344 L 146.265625 219.339844 C 149.609375 216.375 152.546875 212.832031 154.910156 208.746094 C 157.261719 204.675781 158.855469 200.378906 159.746094 196.023438 Z M 215.410156 196.023438 " fill-opacity="1" fill-rule="nonzero"/></svg>